<svg xmlns="http://www.w3.org/2000/svg" viewBox="0 0 800 72"><style>
@keyframes a0_w { 0% { width: 798px; } 100% { width: 798px; } }
@keyframes a0_h { 0% { height: 70px; } 100% { height: 70px; } }
@keyframes a1_do { 0% { stroke-dashoffset: 10px; } 100% { stroke-dashoffset: -14px; } }
@keyframes a2_do { 0% { stroke-dashoffset: 20px; } 100% { stroke-dashoffset: -27px; } }
@keyframes a3_do { 0% { stroke-dashoffset: 30px; } 100% { stroke-dashoffset: -31px; } }
@keyframes a4_do { 0% { stroke-dashoffset: 10px; } 100% { stroke-dashoffset: -14px; } }
@keyframes a5_do { 0% { stroke-dashoffset: 20px; } 100% { stroke-dashoffset: -27px; } }
@keyframes a6_do { 0% { stroke-dashoffset: 30px; } 100% { stroke-dashoffset: -31px; } }
@keyframes a7_f { 0% { fill: #14a8e1; } 100% { fill: #14a8e1; } }
</style><defs><filter id="filter0_d_3_265" x="293" y="12" width="214" height="56" filterUnits="userSpaceOnUse" color-interpolation-filters="sRGB" fill="none"><feFlood flood-opacity="0" result="BackgroundImageFix"/><feColorMatrix in="SourceAlpha" values="0 0 0 0 0 0 0 0 0 0 0 0 0 0 0 0 0 0 127 0" result="hardAlpha"/><feOffset dy="4"/><feGaussianBlur stdDeviation="4"/><feColorMatrix values="0 0 0 0 0.184314 0 0 0 0 0.317647 0 0 0 0 0.568627 0 0 0 0.17 0"/><feBlend in2="BackgroundImageFix" result="effect1_dropShadow_3_265"/><feBlend in="SourceGraphic" in2="effect1_dropShadow_3_265" result="shape"/></filter><filter id="Filter-0" x="-12%" y="-40%" width="135%" height="220%" color-interpolation-filters="sRGB"><feGaussianBlur stdDeviation="10"/></filter><linearGradient id="Gradient-0" x1="281.8" y1="-6.5" x2="287.4" y2="105.2" gradientUnits="userSpaceOnUse"><stop offset="0" stop-color="#3b4b60"/><stop offset="1" stop-color="#09111c"/></linearGradient><linearGradient id="Gradient-1" x1="398.5" y1="-1.5" x2="398.5" y2="70.5" gradientUnits="userSpaceOnUse"><stop offset="0" stop-color="#00a1dd" stop-opacity=".3"/><stop offset="1" stop-color="#1a2534" stop-opacity="0"/></linearGradient><linearGradient id="Gradient-2" x1="982.7" y1="89.5" x2="982.7" y2="-15.6" gradientUnits="userSpaceOnUse"><stop offset="0" stop-color="#00a1de"/><stop offset="1" stop-color="#9adbf5"/></linearGradient><linearGradient id="Gradient-3" x1="0" y1="-198.8" x2="0" y2="198.8" gradientUnits="userSpaceOnUse"><stop offset="0" stop-color="#14a8e1"/><stop offset="1" stop-color="#8ed7f5"/></linearGradient><linearGradient id="Gradient-4" x1="142.7" y1="-38.5" x2="193.4" y2="-52.1" gradientUnits="userSpaceOnUse"><stop offset="0" stop-color="#9adbf5" stop-opacity="0"/><stop offset="1" stop-color="#00a1dd" stop-opacity=".37"/></linearGradient><linearGradient id="Gradient-5" x1="0" y1="-164.5" x2="0" y2="164.5" gradientUnits="userSpaceOnUse"><stop offset="0" stop-color="#14a8e1"/><stop offset="1" stop-color="#8ed7f5"/></linearGradient><linearGradient id="Gradient-6" x1="118.1" y1="-31.9" x2="160" y2="-43.1" gradientUnits="userSpaceOnUse"><stop offset="0" stop-color="#9adbf5" stop-opacity="0"/><stop offset="1" stop-color="#00a1dd" stop-opacity=".37"/></linearGradient><linearGradient id="Gradient-7" x1="0" y1="-116.5" x2="0" y2="116.5" gradientUnits="userSpaceOnUse"><stop offset="0" stop-color="#14a8e1"/><stop offset="1" stop-color="#8ed7f5"/></linearGradient><linearGradient id="Gradient-8" x1="83.6" y1="-22.6" x2="113.3" y2="-30.5" gradientUnits="userSpaceOnUse"><stop offset="0" stop-color="#9adbf5" stop-opacity="0"/><stop offset="1" stop-color="#00a1dd" stop-opacity=".37"/></linearGradient><linearGradient id="Gradient-9" x1="142.7" y1="-38.5" x2="193.4" y2="-52.1" gradientUnits="userSpaceOnUse"><stop offset="0" stop-color="#9adbf5" stop-opacity="0"/><stop offset="1" stop-color="#00a1dd" stop-opacity=".37"/></linearGradient><linearGradient id="Gradient-10" x1="0" y1="-164.5" x2="0" y2="164.5" gradientUnits="userSpaceOnUse"><stop offset="0" stop-color="#14a8e1"/><stop offset="1" stop-color="#8ed7f5"/></linearGradient><linearGradient id="Gradient-11" x1="118.1" y1="-31.9" x2="160" y2="-43.1" gradientUnits="userSpaceOnUse"><stop offset="0" stop-color="#9adbf5" stop-opacity="0"/><stop offset="1" stop-color="#00a1dd" stop-opacity=".37"/></linearGradient><linearGradient id="Gradient-12" x1="0" y1="-116.5" x2="0" y2="116.5" gradientUnits="userSpaceOnUse"><stop offset="0" stop-color="#14a8e1"/><stop offset="1" stop-color="#8ed7f5"/></linearGradient><linearGradient id="Gradient-13" x1="83.6" y1="-22.6" x2="113.3" y2="-30.5" gradientUnits="userSpaceOnUse"><stop offset="0" stop-color="#9adbf5" stop-opacity="0"/><stop offset="1" stop-color="#00a1dd" stop-opacity=".37"/></linearGradient><linearGradient id="Gradient-14" x1="346" y1="66" x2="346" y2="-4.6" gradientUnits="userSpaceOnUse"><stop offset="0" stop-color="#09a4df"/><stop offset="1" stop-color="#98dbf6"/></linearGradient><clipPath id="ClipPath-1"><rect x="326" y="28" width="16" height="16" fill="#fff"/></clipPath><mask id="Mask-1" style="mask-type: alpha;"><rect width="800" height="66" rx="10" fill="url(#Gradient-14)" transform="translate(0,3)"/></mask></defs><rect width="798" height="70" fill="url(#Gradient-0)" rx="8.5" style="animation: 1s linear infinite both a0_w, 1s linear infinite both a0_h;"/><rect width="797" height="69" rx="8.5" fill="url(#Gradient-1)" transform="translate(1.5,1.5)"/><g filter="url(#filter0_d_3_265)" fill="none"><rect x="310" y="20" width="180" height="32" rx="16" fill="#fff"/><g clip-path="url(#ClipPath-1)"><path d="M334 28c-1.6 0-3.1 .5-4.4 1.3c-1.4 .9-2.4 2.2-3 3.6c-0.6 1.5-0.8 3.1-0.4 4.7c.3 1.5 1 2.9 2.1 4.1c1.2 1.1 2.6 1.8 4.1 2.1c1.6 .4 3.2 .2 4.7-0.4c1.4-0.6 2.7-1.6 3.6-3c.8-1.3 1.3-2.8 1.3-4.4c0-2.1-0.8-4.2-2.3-5.7c-1.5-1.5-3.6-2.3-5.7-2.3Zm3.2 8.6l-4.9 2.5c-0.1 0-0.2 0-0.3 0c-0.1 0-0.3 0-0.3-0.1c-0.1 0-0.2-0.1-0.3-0.2c0-0.1-0.1-0.2-0.1-0.3v-5c0-0.1 .1-0.2 .1-0.3c.1-0.1 .2-0.2 .2-0.2c.1-0.1 .3-0.1 .4-0.1c.1 0 .2 0 .3 0l4.9 2.5c.1 .1 .2 .1 .3 .2c.1 .2 .1 .3 .1 .4c0 .1 0 .2-0.1 .3c-0.1 .2-0.2 .2-0.3 .3Z" fill="#00a1df"/></g><path d="M362.5 32.6c0 .1 0 .2-0.1 .3l-1.9 6.8c-0.1 .2-0.2 .5-0.5 .6c-0.2 .2-0.4 .3-0.7 .3c-0.3 0-0.6-0.1-0.8-0.3c-0.2-0.1-0.3-0.4-0.4-0.6l-1.3-5.2l-1.3 5.2c-0.1 .2-0.2 .5-0.5 .6c-0.2 .2-0.4 .3-0.7 .3c-0.3 0-0.5-0.1-0.8-0.3c-0.2-0.1-0.3-0.4-0.4-0.6l-2-6.8c0-0.1 0-0.2 0-0.3c0-0.2 .1-0.4 .3-0.6c.1-0.2 .4-0.3 .7-0.3c.2 0 .4 0 .6 .2c.2 .1 .3 .3 .3 .5l1.4 5.7l1.5-5.7c.1-0.2 .2-0.3 .3-0.5c.2-0.1 .4-0.1 .6-0.1c.2 0 .4 0 .5 .1c.2 .2 .3 .3 .4 .5l1.4 5.7l1.4-5.7c.1-0.2 .2-0.4 .4-0.5c.1-0.2 .4-0.2 .6-0.2c.3 0 .5 .1 .7 .3c.2 .2 .3 .4 .3 .6Zm9.1 7c0 .2-0.1 .5-0.3 .7c-0.2 .2-0.4 .3-0.7 .3c-0.2 0-0.4-0.1-0.6-0.2c-0.1-0.1-0.2-0.2-0.3-0.4l-0.4-1h-3.7l-0.3 1c-0.1 .2-0.2 .3-0.4 .4c-0.2 .1-0.3 .2-0.5 .2c-0.3 0-0.6-0.1-0.7-0.3c-0.2-0.2-0.3-0.5-0.3-0.7c0-0.1 0-0.3 .1-0.4l2.5-6.5c.1-0.3 .3-0.5 .5-0.7c.3-0.2 .6-0.2 .9-0.2c.3-0.1 .6 0 .9 .2c.3 .2 .6 .4 .7 .7l2.5 6.5c0 .2 .1 .3 .1 .4Zm-2.8-2.2l-1.3-3.7l-1.4 3.7h2.7Zm10.5-4.8c0 .3-0.1 .5-0.3 .6c-0.1 .2-0.3 .3-0.5 .3h-1.8v6.2c0 .2-0.1 .4-0.3 .6c-0.2 .2-0.4 .3-0.7 .3c-0.2 0-0.4-0.1-0.6-0.3c-0.2-0.2-0.3-0.4-0.3-0.6v-6.2h-1.8c-0.2 0-0.4-0.1-0.6-0.3c-0.1-0.1-0.2-0.3-0.2-0.6c0-0.2 .1-0.4 .2-0.5c.2-0.2 .4-0.3 .6-0.3h5.5c.2 0 .4 .1 .5 .3c.2 .1 .3 .3 .3 .5Zm5.8-0.9c.8 0 1.4 .1 1.9 .4c.5 .3 .9 .6 1.3 1c.1 .2 .2 .3 .2 .5c0 .3-0.1 .5-0.3 .6c-0.2 .2-0.4 .3-0.6 .3c-0.1 0-0.3-0.1-0.4-0.1c-0.1-0.1-0.2-0.1-0.3-0.2c-0.3-0.3-0.5-0.5-0.8-0.7c-0.3-0.1-0.7-0.2-1-0.2c-0.4 0-0.7 .1-1.1 .2c-0.3 .2-0.6 .4-0.8 .6c-0.3 .3-0.5 .6-0.6 .9c-0.1 .4-0.2 .8-0.2 1.2c0 .4 .1 .8 .2 1.1c.1 .4 .3 .7 .6 .9c.2 .3 .5 .5 .8 .6c.4 .1 .7 .2 1.1 .2c.3 0 .7-0.1 1-0.2c.3-0.1 .6-0.3 .8-0.6c.1-0.1 .2-0.2 .3-0.2c.1-0.1 .3-0.1 .4-0.1c.2 0 .4 .1 .6 .2c.2 .2 .2 .4 .2 .6c0 .1 0 .2 0 .3c0 .1-0.1 .1-0.1 .2c-0.4 .4-0.8 .8-1.3 1c-0.5 .3-1.1 .5-1.9 .5c-0.6 0-1.2-0.2-1.8-0.4c-0.6-0.2-1.1-0.5-1.5-0.9c-0.4-0.4-0.7-0.9-0.9-1.4c-0.3-0.6-0.4-1.2-0.4-1.8c0-0.7 .1-1.3 .4-1.8c.2-0.6 .5-1.1 .9-1.5c.4-0.4 .9-0.7 1.5-0.9c.6-0.2 1.2-0.3 1.8-0.3Zm13.4 8c0 .2-0.1 .4-0.3 .6c-0.2 .2-0.4 .3-0.6 .3c-0.3 0-0.5-0.1-0.7-0.3c-0.2-0.2-0.3-0.4-0.3-0.6v-2.8h-4.1v2.8c0 .2 0 .4-0.2 .6c-0.2 .2-0.4 .3-0.7 .3c-0.2 0-0.5-0.1-0.6-0.3c-0.2-0.2-0.3-0.4-0.3-0.6v-7c0-0.3 .1-0.5 .3-0.7c.2-0.2 .4-0.2 .6-0.2c.3 0 .5 0 .7 .2c.2 .2 .2 .4 .2 .7v2.5h4.1v-2.5c0-0.3 .1-0.5 .3-0.7c.2-0.2 .4-0.2 .7-0.2c.2 0 .5 0 .6 .2c.2 .2 .3 .4 .3 .7v7Zm13.2-7.1c0 .3-0.1 .5-0.2 .6c-0.2 .2-0.4 .3-0.6 .3h-1.8v6.2c0 .2-0.1 .4-0.3 .6c-0.1 .2-0.4 .3-0.6 .3c-0.3 0-0.5-0.1-0.7-0.3c-0.1-0.2-0.2-0.4-0.2-0.6v-6.2h-1.8c-0.3 0-0.5-0.1-0.6-0.3c-0.2-0.1-0.3-0.3-0.3-0.6c0-0.2 .1-0.4 .3-0.5c.1-0.2 .3-0.3 .6-0.3h5.4c.2 0 .4 .1 .6 .3c.1 .1 .2 .3 .2 .5Zm9.8 4.4c0 .6-0.1 1.1-0.2 1.5c-0.2 .5-0.4 .8-0.8 1.2c-0.3 .3-0.7 .5-1.2 .7c-0.5 .2-1 .3-1.7 .3c-0.7 0-1.2-0.1-1.7-0.3c-0.5-0.2-0.9-0.4-1.3-0.7c-0.3-0.4-0.5-0.7-0.7-1.2c-0.1-0.4-0.2-0.9-0.2-1.5v-4.3c0-0.3 .1-0.5 .3-0.7c.1-0.2 .4-0.2 .6-0.2c.3 0 .5 0 .7 .2c.2 .2 .3 .4 .3 .7v4.3c0 .6 .1 1.1 .5 1.5c.3 .3 .8 .5 1.5 .5c.7 0 1.2-0.2 1.5-0.5c.4-0.4 .5-0.9 .5-1.5v-4.3c0-0.3 .1-0.5 .3-0.7c.2-0.2 .4-0.2 .7-0.2c.2 0 .5 0 .6 .2c.2 .2 .3 .4 .3 .7v4.3Zm9-4.4c0 .3 0 .5-0.2 .6c-0.2 .2-0.3 .3-0.6 .3h-1.8v6.2c0 .2-0.1 .4-0.2 .6c-0.2 .2-0.4 .3-0.7 .3c-0.2 0-0.5-0.1-0.6-0.3c-0.2-0.2-0.3-0.4-0.3-0.6v-6.2h-1.8c-0.3 0-0.4-0.1-0.6-0.3c-0.2-0.1-0.2-0.3-0.2-0.6c0-0.2 0-0.4 .2-0.5c.2-0.2 .3-0.3 .6-0.3h5.4c.3 0 .4 .1 .6 .3c.2 .1 .2 .3 .2 .5Zm10.3 3.6c0 .6-0.1 1.2-0.3 1.8c-0.2 .5-0.5 1-1 1.4c-0.4 .4-0.8 .7-1.4 .9c-0.5 .2-1.1 .4-1.8 .4c-0.7 0-1.3-0.2-1.8-0.4c-0.6-0.2-1-0.5-1.5-0.9c-0.4-0.4-0.7-0.9-0.9-1.4c-0.2-0.6-0.3-1.2-0.3-1.8c0-0.7 .1-1.3 .3-1.8c.2-0.6 .5-1.1 .9-1.5c.5-0.4 .9-0.7 1.5-0.9c.5-0.2 1.1-0.3 1.8-0.3c.7 0 1.3 .1 1.8 .3c.6 .2 1 .5 1.4 .9c.5 .4 .8 .9 1 1.5c.2 .5 .3 1.1 .3 1.8Zm-1.9 0c0-0.4 0-0.8-0.2-1.2c-0.1-0.3-0.3-0.6-0.5-0.9c-0.2-0.2-0.5-0.4-0.8-0.6c-0.3-0.1-0.7-0.2-1.1-0.2c-0.4 0-0.8 .1-1.1 .2c-0.3 .2-0.6 .4-0.8 .6c-0.2 .3-0.4 .6-0.5 .9c-0.2 .4-0.2 .8-0.2 1.2c0 .4 0 .8 .2 1.1c.1 .3 .3 .6 .5 .9c.2 .3 .5 .4 .8 .6c.3 .1 .7 .2 1.1 .2c.4 0 .8-0.1 1.1-0.2c.3-0.2 .6-0.3 .8-0.6c.2-0.3 .4-0.6 .5-0.9c.2-0.3 .2-0.7 .2-1.1Zm11.1-1.6c0 .4-0.1 .7-0.2 1c-0.1 .3-0.3 .6-0.4 .8c-0.2 .2-0.4 .4-0.7 .5c-0.2 .2-0.4 .2-0.6 .3l1.2 2c0 .2 .1 .3 .1 .5c0 .2-0.1 .4-0.3 .6c-0.1 .2-0.4 .3-0.6 .3c-0.2 0-0.4-0.1-0.5-0.1c-0.1-0.1-0.2-0.2-0.3-0.4l-1.5-2.7h-1.4v2.3c0 .2-0.1 .4-0.2 .6c-0.2 .2-0.4 .3-0.7 .3c-0.3 0-0.5-0.1-0.7-0.3c-0.1-0.2-0.2-0.4-0.2-0.6v-6.8c0-0.3 .1-0.6 .3-0.8c.2-0.2 .4-0.3 .7-0.3h3c.5 0 .9 .1 1.3 .2c.3 .2 .6 .4 .9 .6c.2 .3 .4 .6 .5 .9c.2 .4 .3 .7 .3 1.1Zm-3.2-1.1h-2v2.3h2c.3 0 .7-0.1 .9-0.3c.2-0.2 .4-0.5 .4-0.9c0-0.3-0.2-0.6-0.4-0.8c-0.2-0.2-0.6-0.3-0.9-0.3Zm7.2 6.2c0 .2 0 .4-0.2 .6c-0.2 .2-0.4 .3-0.7 .3c-0.2 0-0.5-0.1-0.6-0.3c-0.2-0.2-0.3-0.4-0.3-0.6v-7c0-0.3 .1-0.5 .3-0.7c.2-0.2 .4-0.2 .6-0.2c.3 0 .5 0 .7 .2c.2 .2 .2 .4 .2 .7v7Zm10.3-0.1c0 .2-0.1 .5-0.3 .7c-0.1 .2-0.4 .3-0.7 .3c-0.2 0-0.4-0.1-0.5-0.2c-0.2-0.1-0.3-0.2-0.4-0.4l-0.3-1h-3.7l-0.4 1c-0.1 .2-0.2 .3-0.4 .4c-0.1 .1-0.3 .2-0.5 .2c-0.3 0-0.5-0.1-0.7-0.3c-0.2-0.2-0.3-0.5-0.3-0.7c0-0.1 0-0.3 .1-0.4l2.5-6.5c.1-0.3 .3-0.5 .6-0.7c.2-0.2 .5-0.2 .8-0.2c.4-0.1 .7 0 1 .2c.3 .2 .5 .4 .6 .7l2.5 6.5c.1 .2 .1 .3 .1 .4Zm-2.7-2.2l-1.4-3.7l-1.3 3.7h2.7Zm10.4 2.3c0 .2-0.1 .4-0.3 .6c-0.1 .1-0.3 .2-0.5 .2h-3.8c-0.3 0-0.5-0.1-0.7-0.3c-0.2-0.2-0.3-0.5-0.3-0.7v-6.8c0-0.3 .1-0.5 .2-0.7c.2-0.2 .5-0.2 .7-0.2c.3 0 .5 0 .6 .2c.2 .2 .3 .4 .3 .7v6.2h3c.2 0 .4 .1 .5 .2c.2 .2 .3 .4 .3 .6Z" fill="#2f5191"/></g><rect width="797" height="69" rx="8.5" stroke="url(#Gradient-2)" stroke-width="3" fill="none" transform="translate(1.5,1.5)"/><g fill="none" mask="url(#Mask-1)"><ellipse opacity=".3" fill="url(#Gradient-4)" stroke="url(#Gradient-3)" stroke-width="3" stroke-dasharray="4 8" rx="197.3" ry="197.3" stroke-dashoffset="10" transform="translate(-138.2,178.9) rotate(-75) translate(47.5,179.5)" style="animation: 1s linear infinite both a1_do;"/><ellipse opacity=".3" fill="url(#Gradient-6)" stroke="url(#Gradient-5)" stroke-width="3" stroke-dasharray="4 8" rx="163" ry="163" stroke-dashoffset="20" transform="translate(-128.2,131.6) rotate(-75) translate(21.7,149.3)" style="animation: 1s linear infinite both a2_do;"/><ellipse opacity=".3" fill="url(#Gradient-8)" stroke="url(#Gradient-7)" stroke-width="3" stroke-dasharray="4 8" rx="115" ry="115" stroke-dashoffset="30" transform="translate(-98.2,74.8) rotate(-75) translate(-0.4,101.4)" style="animation: 1s linear infinite both a3_do;"/><ellipse opacity=".3" fill="url(#Gradient-9)" stroke="url(#Gradient-3)" stroke-width="3" stroke-dasharray="4 8" rx="197.3" ry="197.3" stroke-dashoffset="10" transform="translate(769.7,-857.5) rotate(100.7) translate(740.2,-109.8)" style="animation: 1s linear infinite both a4_do;"/><ellipse opacity=".3" fill="url(#Gradient-11)" stroke="url(#Gradient-10)" stroke-width="3" stroke-dasharray="4 8" rx="163" ry="163" stroke-dashoffset="20" transform="translate(830.6,-851.7) rotate(100.7) translate(768.3,-81.6)" style="animation: 1s linear infinite both a5_do;"/><ellipse opacity=".3" fill="url(#Gradient-13)" stroke="url(#Gradient-12)" stroke-width="3" stroke-dasharray="4 8" rx="115" ry="115" stroke-dashoffset="30" transform="translate(906.3,-822.1) rotate(100.7) translate(793.9,-35.4)" style="animation: 1s linear infinite both a6_do;"/><ellipse rx="134.9" ry="38.8" opacity=".3" fill="#14a8e1" filter="url(#Filter-0)" transform="translate(752.9,96.6)" style="animation: 1s linear infinite both a7_f;"/></g></svg>